<?xml version="1.0" encoding="UTF-8"?>
<!DOCTYPE svg PUBLIC "-//W3C//DTD SVG 1.1//EN" "http://www.w3.org/Graphics/SVG/1.1/DTD/svg11.dtd">
<!-- Creator: CorelDRAW X7 -->
<svg xmlns="http://www.w3.org/2000/svg" xml:space="preserve" width="120mm" height="100mm" version="1.1" style="shape-rendering:geometricPrecision; text-rendering:geometricPrecision; image-rendering:optimizeQuality; fill-rule:evenodd; clip-rule:evenodd"
viewBox="0 0 12000 10000"
 xmlns:xlink="http://www.w3.org/1999/xlink">
 <defs>
  <style type="text/css">
   <![CDATA[
    .str0 {stroke:red;stroke-width:7.62}
    .fil0 {fill:none}
   ]]>
  </style>
 </defs>
 <g id="Ebene_x0020_1">
  <metadata id="CorelCorpID_0Corel-Layer"/>
  <path class="fil0 str0" d="M8350 8000l0 1000 300 0 0 -1000m-5300 0l0 1000 300 0 0 -1000m-3650 2008l12000 0m-12000 -8l0 -500m0 0l0 0c0,-826 674,-1500 1500,-1500l0 0m0 0l9000 0m1500 1500l0 0c0,-826 -674,-1500 -1500,-1500l0 0m1500 2000l0 -500"/>
  <path class="fil0 str0" d="M2075 4986c229,-601 383,-542 835,-369"/>
  <path class="fil0 str0" d="M2075 1451c229,-601 383,-542 835,-370"/>
  <path class="fil0 str0" d="M9925 4986c-229,-601 -383,-542 -835,-369"/>
  <path class="fil0 str0" d="M9925 1451c-229,-601 -383,-542 -835,-370"/>
  <path class="fil0 str0" d="M1000 7800l10000 0m-8696 -3415l3700 1413m0 0l3693 -1410m-7622 598l229 -601 -1304 3415m10000 0l-1303 -3412m-3847 3412l0 -1000 300 0 0 1000"/>
  <path class="fil0 str0" d="M1000 4265l10000 0m-8696 -3414l3700 1412m0 0l3693 -1410m-7622 598l229 -600 -1304 3414m10000 0l-1303 -3412m-3847 3412l0 -1000 300 0 0 1000"/>
 </g>
</svg>
